<svg width="1000" height="990" viewBox="0 0 1000 990" fill="none" xmlns="http://www.w3.org/2000/svg">
<rect width="1000" height="990" fill="#85C5E5"/>
<mask id="mask0_604_2" style="mask-type:alpha" maskUnits="userSpaceOnUse" x="0" y="0" width="1000" height="966">
<path d="M1000 0H0V718.31H179.2C217.58 860.69 346.65 965.41 500 965.41C653.35 965.41 782.42 860.69 820.8 718.31H1000V0Z" fill="white"/>
</mask>
<g mask="url(#mask0_604_2)">
<path d="M500 962.602C683.602 962.602 832.442 813.763 832.442 630.16C832.442 446.558 683.602 297.718 500 297.718C316.397 297.718 167.558 446.558 167.558 630.16C167.558 813.763 316.397 962.602 500 962.602Z" fill="#85C5E5"/>
<path d="M610 758.72C700.76 758.72 682 872.96 682.87 1000H610V758.72Z" fill="#FDD2B2"/>
<path d="M632.74 831.87L610 870L621.38 1000H653.14C653.91 819.73 632.74 831.87 632.74 831.87Z" fill="#F3AB98"/>
<path d="M233.249 500C233.249 352.68 352.679 233.25 499.999 233.25C647.319 233.25 766.749 352.68 766.749 500C766.787 539.694 757.948 578.895 740.879 614.731C723.81 650.568 698.944 682.135 668.099 707.12C662.626 711.573 656.979 715.803 651.159 719.81C590.999 758 514.999 758 446.389 751.89C439.729 750.89 433.089 749.63 426.499 748.18C400.169 742.38 374.679 733.43 351.129 720.38C345.309 716.793 339.666 712.92 334.199 708.76C328.705 704.576 323.431 700.11 318.399 695.38C313.639 690.96 309.043 686.367 304.609 681.6C258.666 632.299 233.16 567.39 233.249 500V500Z" fill="#FDD2B2"/>
<path d="M269.61 634.48C270.31 635.68 271 636.88 271.72 638.06C272.15 638.78 272.6 639.48 273.05 640.2C273.71 641.27 274.37 642.34 275.05 643.39C275.53 644.15 276.05 644.89 276.51 645.63C277.17 646.63 277.83 647.63 278.51 648.63C279.02 649.39 279.51 650.15 280.07 650.91C280.73 651.91 281.39 652.83 282.07 653.79C282.61 654.56 283.17 655.32 283.72 656.09C284.27 656.86 285.06 657.94 285.72 658.86C286.38 659.78 286.87 660.39 287.45 661.15C288.03 661.91 288.82 662.95 289.52 663.85C290.22 664.75 290.71 665.36 291.31 666.11C291.91 666.86 292.72 667.87 293.43 668.74C294.14 669.61 294.66 670.23 295.28 670.97C295.9 671.71 296.72 672.69 297.45 673.54C298.18 674.39 298.72 675.01 299.36 675.74L301.58 678.24C302.23 678.97 302.89 679.68 303.58 680.4C304.44 681.34 305.31 682.27 306.18 683.19L307.39 684.47C308.68 685.81 309.98 687.15 311.3 688.47L311.56 688.74C312.85 690.02 314.16 691.29 315.47 692.55L317.05 694.05C318 694.94 318.95 695.83 319.91 696.71L321.07 697.77C322.07 698.71 323.16 699.63 324.21 700.55C327.476 703.397 330.81 706.127 334.21 708.74C339.67 712.9 345.313 716.773 351.14 720.36C374.69 733.36 400.14 742.36 426.51 748.16C433.1 749.61 439.74 750.86 446.4 751.87C488.5 755.62 533.4 757.05 575.68 748.79C508.45 729 185.59 612.74 388.8 257.48C386.08 258.73 383.4 260.02 380.74 261.36L380.15 261.65C378.93 262.26 377.71 262.89 376.5 263.53L375.5 264.06C371.74 266.06 368.02 268.13 364.37 270.29L363.47 270.82C362.31 271.51 361.16 272.21 360.01 272.92L359.14 273.46C355.566 275.693 352.05 278.003 348.59 280.39L347.51 281.14C346.42 281.9 345.35 282.66 344.28 283.43L343.62 283.9C341.44 285.493 339.286 287.107 337.16 288.74L336.54 289.22C335.54 290 334.54 290.8 333.54 291.61L332.37 292.55C331.37 293.36 330.37 294.17 329.37 295C327.26 296.75 325.18 298.55 323.13 300.37L321.99 301.37L319.3 303.82L318 305C315.146 307.667 312.356 310.39 309.63 313.17L308.25 314.58C307.46 315.4 306.67 316.22 305.89 317.05C305.43 317.54 304.97 318.05 304.52 318.53C303.146 319.997 301.793 321.483 300.46 322.99C300.01 323.5 299.55 323.99 299.1 324.53C298.39 325.34 297.69 326.16 296.99 326.98L295.48 328.77C294.8 329.58 294.12 330.39 293.48 331.21C292.94 331.87 292.4 332.54 291.87 333.21C290.8 334.54 289.75 335.87 288.71 337.21C288.17 337.91 287.63 338.61 287.1 339.32C286.57 340.03 285.9 340.91 285.31 341.72C284.72 342.53 284.24 343.17 283.72 343.9C283.2 344.63 282.59 345.45 282.04 346.23C281.093 347.563 280.16 348.913 279.24 350.28C278.74 351.01 278.24 351.76 277.75 352.5C277.26 353.24 276.65 354.16 276.11 355L274.62 357.31L272.94 360.02C272.51 360.71 272.08 361.4 271.66 362.09C270.77 363.55 269.91 365.02 269.05 366.49L267.83 368.65C267.29 369.6 266.75 370.56 266.22 371.52C265.82 372.25 265.42 372.98 265.03 373.71C264.39 374.9 263.76 376.1 263.13 377.3L261.93 379.64C261.29 380.92 260.65 382.19 260.02 383.48C259.69 384.17 259.35 384.87 259.02 385.57C258.5 386.66 258.02 387.76 257.49 388.86C257.18 389.52 256.88 390.18 256.58 390.86C255.84 392.507 255.116 394.173 254.41 395.86C254.19 396.38 253.98 396.91 253.76 397.43C253.23 398.7 252.71 399.97 252.2 401.25C251.93 401.92 251.67 402.59 251.41 403.25C250.91 404.51 250.41 405.78 249.96 407.05C249.75 407.6 249.54 408.15 249.34 408.7C248.713 410.453 248.096 412.207 247.49 413.96L246.93 415.66C246.49 416.993 246.06 418.327 245.64 419.66L245.04 421.57C244.57 423.11 244.11 424.65 243.67 426.2C243.57 426.53 243.47 426.86 243.38 427.2C242.86 429.04 242.36 430.887 241.88 432.74C241.72 433.33 241.58 433.93 241.43 434.52C241.08 435.91 240.74 437.3 240.43 438.7L240.01 440.45C239.58 442.35 239.16 444.25 238.77 446.16L238.62 446.93C238.28 448.63 237.946 450.33 237.62 452.03C237.51 452.64 237.41 453.24 237.3 453.85C237.04 455.34 236.79 456.85 236.56 458.35C236.48 458.86 236.39 459.35 236.32 459.87C236.02 461.82 235.75 463.78 235.49 465.75L235.34 467.05C235.14 468.64 234.96 470.24 234.79 471.84C234.73 472.44 234.66 473.04 234.6 473.65C234.44 475.33 234.29 477.02 234.15 478.71C234.15 479.06 234.09 479.4 234.07 479.71C233.923 481.71 233.793 483.727 233.68 485.76C233.68 486.29 233.68 486.83 233.61 487.36C233.543 488.933 233.483 490.503 233.43 492.07C233.43 492.66 233.43 493.25 233.43 493.84C233.43 495.89 233.35 497.95 233.35 500.01C233.35 500.01 233.35 500.08 233.35 500.11C233.35 502.33 233.35 504.53 233.43 506.73C233.43 507.49 233.49 508.25 233.51 509.01C233.56 510.48 233.61 511.95 233.68 513.42C233.68 514.31 233.79 515.19 233.84 516.08C233.92 517.41 233.99 518.74 234.09 520.08C234.16 521.08 234.25 521.97 234.33 522.91C234.44 524.17 234.54 525.43 234.67 526.68C234.76 527.68 234.88 528.62 234.98 529.59C235.12 530.8 235.25 532.02 235.4 533.23C235.52 534.23 235.66 535.23 235.79 536.18C235.95 537.36 236.11 538.55 236.29 539.73C236.44 540.73 236.6 541.73 236.76 542.73C236.94 543.89 237.13 545.06 237.33 546.22C237.51 547.22 237.69 548.22 237.88 549.22C238.09 550.37 238.31 551.52 238.53 552.66C238.75 553.8 238.94 554.66 239.15 555.66C239.39 556.8 239.63 557.93 239.89 559.06C240.15 560.19 240.33 561.06 240.57 561.99C240.83 563.12 241.11 564.24 241.39 565.35C241.67 566.46 241.88 567.3 242.13 568.26C242.43 569.38 242.73 570.49 243.04 571.6C243.3 572.6 243.57 573.52 243.85 574.47C244.17 575.58 244.5 576.68 244.85 577.78C245.2 578.88 245.43 579.67 245.73 580.62C246.03 581.57 246.43 582.81 246.79 583.9C247.15 584.99 247.41 585.77 247.73 586.7C248.11 587.79 248.49 588.88 248.88 589.97C249.21 590.88 249.53 591.8 249.88 592.71L251.12 595.98C251.47 596.87 251.81 597.77 252.12 598.66C252.56 599.75 253.01 600.85 253.46 601.94C253.82 602.8 254.17 603.67 254.54 604.53C255.01 605.65 255.54 606.75 255.99 607.86C256.36 608.68 256.72 609.51 257.09 610.33C257.61 611.49 258.16 612.63 258.69 613.77L259.77 616.07C260.38 617.33 261.01 618.57 261.64 619.82C261.96 620.45 262.26 621.09 262.59 621.72C264.51 625.46 266.51 629.15 268.59 632.79C268.88 633.26 269.25 633.87 269.61 634.48Z" fill="#F3AB98"/>
<path d="M233.249 500C233.249 352.68 352.679 233.25 499.999 233.25C647.319 233.25 766.749 352.68 766.749 500C766.787 539.694 757.948 578.895 740.879 614.731C723.81 650.568 698.944 682.135 668.099 707.12C662.626 711.573 656.979 715.803 651.159 719.81C590.999 758 514.999 758 446.389 751.89C439.729 750.89 433.089 749.63 426.499 748.18C400.169 742.38 374.679 733.43 351.129 720.38C345.309 716.793 339.666 712.92 334.199 708.76C328.705 704.576 323.431 700.11 318.399 695.38C313.639 690.96 309.043 686.367 304.609 681.6C258.666 632.299 233.16 567.39 233.249 500V500Z" stroke="#592D3D" stroke-width="12" stroke-miterlimit="10"/>
<path d="M386.12 758.72C295.35 758.72 314.12 872.96 313.25 1000H386.12V758.72Z" fill="#FDD2B2"/>
<path d="M367.23 831.87L390 870L378.61 1000H346.88C346.07 819.73 367.23 831.87 367.23 831.87Z" fill="#F3AB98"/>
<path d="M619.47 1070H380.53C377.009 1070 373.634 1068.6 371.146 1066.11C368.658 1063.62 367.26 1060.24 367.26 1056.72V772C367.26 768.479 368.658 765.103 371.146 762.613C373.634 760.123 377.009 758.722 380.53 758.72H613.76C626.85 758.72 632.76 766.38 632.76 778.6V1056.68C632.765 1058.43 632.425 1060.16 631.759 1061.78C631.094 1063.39 630.116 1064.86 628.881 1066.1C627.646 1067.34 626.179 1068.32 624.564 1068.99C622.949 1069.66 621.218 1070 619.47 1070V1070Z" fill="#FDD2B2"/>
<path d="M629.05 766.62C628.053 765.394 627.21 764.051 626.54 762.62C624.139 760.739 621.282 759.527 618.26 759.11C616.771 758.88 615.266 758.766 613.76 758.77H380.53C377.018 758.773 373.65 760.166 371.163 762.646C368.677 765.125 367.273 768.488 367.26 772C396.26 782.42 450.55 788.24 500 788.24C563.06 788.24 604.38 778.89 629.05 766.62Z" fill="#F3AB98"/>
<path d="M610 758.72C700.76 758.72 682 872.96 682.87 1000H632.74" stroke="#592D3D" stroke-width="12" stroke-miterlimit="10" stroke-linecap="square"/>
<path d="M386.12 758.72C295.35 758.72 314.12 872.96 313.25 1000H363.32" stroke="#592D3D" stroke-width="12" stroke-miterlimit="10" stroke-linecap="square"/>
<path d="M380.529 758.82L613.759 758.72" stroke="#592D3D" stroke-width="12" stroke-miterlimit="10"/>
<path d="M380.53 1070H497.15C388 1070 396.24 838.82 367.26 838.82V1056.68C367.255 1058.43 367.594 1060.16 368.258 1061.77C368.923 1063.39 369.899 1064.86 371.132 1066.09C372.364 1067.33 373.829 1068.31 375.442 1068.98C377.054 1069.65 378.783 1070 380.53 1070V1070Z" fill="#F3AB98"/>
<path d="M361.26 860.85C361.07 857.18 361.15 853.51 361.31 849.85C361.47 846.19 361.78 842.5 362.17 838.85C362.37 837.01 362.57 835.18 362.82 833.34C363.07 831.5 363.31 829.67 363.67 827.83C364.379 824.022 365.586 820.324 367.26 816.83C368.934 820.324 370.141 824.022 370.85 827.83C371.21 829.67 371.47 831.5 371.7 833.34C371.93 835.18 372.15 837.01 372.35 838.85C372.73 842.52 373.03 846.19 373.2 849.85C373.37 853.51 373.45 857.19 373.26 860.85H361.26Z" fill="#592D3D"/>
<path d="M632.74 870V878C633 912 633 947 632.74 980.75C632.74 983.62 632.74 986.47 632.74 989.28V1056.69C632.744 1058.44 632.403 1060.17 631.738 1061.78C631.073 1063.39 630.097 1064.86 628.864 1066.1C627.632 1067.33 626.168 1068.31 624.556 1068.98C622.944 1069.65 621.215 1070 619.47 1070H380.53C377.009 1070 373.634 1068.6 371.146 1066.11C368.658 1063.62 367.26 1060.24 367.26 1056.72V998.52C367.26 996.01 367.26 993.45 367.26 990.87C367.01 956 367.01 921 367.26 885.57V860.85" stroke="#592D3D" stroke-width="12" stroke-miterlimit="10"/>
<path d="M626.74 870C626.55 865.83 626.64 861.65 626.8 857.47C626.96 853.29 627.27 849.12 627.65 844.94C627.85 842.85 628.06 840.76 628.3 838.67C628.54 836.58 628.79 834.5 629.15 832.41C629.847 828.106 631.052 823.9 632.74 819.88C634.428 823.9 635.633 828.106 636.33 832.41C636.69 834.5 636.95 836.59 637.18 838.67C637.41 840.75 637.63 842.85 637.83 844.94C638.21 849.12 638.52 853.29 638.68 857.47C638.84 861.65 638.93 865.83 638.74 870H626.74Z" fill="#592D3D"/>
<path d="M570.68 842.45C570.9 833 582.9 829 588.9 835C589.875 835.995 590.644 837.173 591.164 838.466C591.684 839.759 591.944 841.141 591.93 842.535C591.915 843.928 591.627 845.305 591.08 846.587C590.534 847.868 589.74 849.03 588.745 850.005C587.749 850.98 586.572 851.75 585.279 852.269C583.986 852.789 582.603 853.05 581.21 853.035C579.817 853.021 578.44 852.732 577.158 852.186C575.876 851.639 574.715 850.845 573.74 849.85C572.766 848.88 571.994 847.727 571.469 846.456C570.944 845.186 570.675 843.825 570.68 842.45V842.45Z" fill="#592D3D"/>
<path d="M408.11 842.15C407.9 834 416.9 830 422.9 833C430.9 836 430.9 847 422.9 852C418.9 854 414.9 852 411.15 849.52C410.183 848.552 409.417 847.403 408.895 846.138C408.373 844.874 408.107 843.518 408.11 842.15V842.15Z" fill="#592D3D"/>
<path d="M500 831.77C500.715 833.655 501.218 835.614 501.5 837.61C501.797 839.543 501.961 841.494 501.99 843.45L502.29 855.14C502.38 859.03 502.5 862.93 502.54 866.83L502.71 878.5C502.94 894.07 502.93 909.66 502.99 925.24C503.05 940.82 503.17 956.4 502.99 971.98C502.9 979.77 502.69 987.56 502.46 995.35C502.36 999.24 502.17 1003.14 501.79 1007.03C501.45 1010.96 500.859 1014.87 500.02 1018.72C499.181 1014.87 498.59 1010.96 498.25 1007.03C497.87 1003.14 497.68 999.24 497.58 995.35C497.35 987.56 497.14 979.77 497.05 971.98C496.85 956.4 497.05 940.82 497.05 925.24C497.05 909.66 497.05 894.09 497.23 878.51L497.4 866.81L497.73 855.13L498.06 843.45C498.097 841.494 498.264 839.543 498.56 837.61C498.822 835.616 499.305 833.657 500 831.77V831.77Z" fill="#F3AB98"/>
<path d="M425.22 883C426.703 882.295 428.273 881.791 429.89 881.5C431.434 881.21 432.999 881.043 434.57 881L443.92 880.67L462.62 880.26C475.08 880.07 487.53 880.02 500 879.99C512.47 879.96 524.93 879.83 537.39 879.99C543.62 880.08 549.85 880.29 556.09 880.52C559.2 880.63 562.32 880.82 565.43 881.19C568.588 881.54 571.714 882.135 574.78 882.97C571.716 883.81 568.589 884.402 565.43 884.74C562.32 885.12 559.2 885.31 556.09 885.41C549.85 885.64 543.62 885.84 537.39 885.93C524.93 886.12 512.47 885.93 500 885.93C487.53 885.93 475.07 885.93 462.6 885.78C456.37 885.72 450.14 885.52 443.92 885.28L434.57 884.94C433.002 884.898 431.441 884.73 429.9 884.44C428.283 884.17 426.709 883.686 425.22 883V883Z" fill="#F3AB98"/>
<path d="M442.409 914.38C443.59 913.817 444.852 913.442 446.149 913.27C447.348 913.101 448.561 913.051 449.769 913.12C452.159 913.22 454.549 913.28 456.939 913.33C461.719 913.44 466.499 913.48 471.279 913.5C480.909 913.5 490.369 913.58 500.039 913.29C509.709 913 519.299 912.86 528.919 912.9C533.729 912.9 538.539 913.03 543.339 913.14C545.756 913.173 548.169 913.33 550.569 913.61C553.037 913.883 555.471 914.395 557.839 915.14C555.527 916.048 553.128 916.719 550.679 917.14C548.295 917.57 545.887 917.857 543.469 918C538.649 918.35 533.829 918.65 529.019 918.82C519.379 919.18 509.749 919.14 500.139 919.27C495.329 919.27 490.529 919.49 485.659 919.37C480.789 919.25 475.969 919.24 471.139 919.06C466.309 918.88 461.459 918.48 456.639 917.98C454.219 917.71 451.819 917.41 449.409 917.08C448.192 916.931 446.995 916.65 445.839 916.24C444.598 915.82 443.438 915.191 442.409 914.38V914.38Z" fill="#F3AB98"/>
<path d="M438.93 949.87C440.116 949.172 441.405 948.666 442.75 948.37C444.003 948.078 445.283 947.914 446.57 947.88L454.2 947.56C459.29 947.38 464.39 947.23 469.48 947.15C479.66 947 489.84 947 500 947C510.16 947 520.36 946.83 530.54 947C535.63 947.09 540.72 947.3 545.81 947.53C548.363 947.616 550.91 947.836 553.44 948.19C556.045 948.547 558.61 949.153 561.1 950C558.618 950.831 556.063 951.423 553.47 951.77C550.937 952.132 548.387 952.356 545.83 952.44C540.74 952.67 535.65 952.88 530.56 952.97C520.38 953.17 510.19 953.03 500.01 952.97C489.83 952.91 479.65 952.91 469.47 952.72C464.38 952.62 459.28 952.44 454.19 952.23L446.56 951.86C445.273 951.821 443.993 951.653 442.74 951.36C441.398 951.07 440.112 950.567 438.93 949.87V949.87Z" fill="#F3AB98"/>
<path d="M547.85 847.98L505.72 813.61L580.35 758.82H419.65L494.28 813.61L452.15 847.98L414.52 791.48V869.96H588.78V786.52L547.85 847.98Z" fill="#F3AB98"/>
<path d="M616.659 758.16L573.929 758.26C573.708 762.777 573.231 767.278 572.499 771.74C572.029 773.882 571.448 775.998 570.759 778.08C568.419 784.57 553.499 790.08 549.269 794.81C547.868 796.384 546.365 797.863 544.769 799.24C519.599 817.44 479.599 818.44 455.289 798.66C452.668 796.371 450.285 793.821 448.179 791.05C443.949 785.49 431.779 779.46 430.079 772.11C429.597 769.935 429.237 767.735 428.999 765.52C428.758 763.262 428.638 760.992 428.639 758.72C428.639 758.72 383.429 758.16 383.429 758.16C379.909 758.16 376.533 759.558 374.043 762.046C371.552 764.535 370.152 767.91 370.149 771.43V1056.12C370.152 1059.64 371.552 1063.02 374.043 1065.5C376.533 1067.99 379.909 1069.39 383.429 1069.39H622.359C625.879 1069.39 629.254 1067.99 631.743 1065.5C634.231 1063.01 635.629 1059.64 635.629 1056.12V778C635.629 765.82 629.749 758.16 616.659 758.16Z" fill="white"/>
<path d="M612.84 758.16C676.38 758.16 701.36 801.55 691.74 1030.16C673 1036.86 635.83 1034.75 635.83 1034.75L612.84 758.16Z" fill="white"/>
<path d="M451.06 855.4L499.51 831.31L548.09 855.4L511.03 812.38L467.14 813.21L451.06 855.4Z" fill="#E2E2E2"/>
<path d="M635.63 831.31C635.63 831.31 612.84 915.85 616.32 1065.31L649.53 1034.31L653.11 896.73C647.49 824.5 635.63 831.31 635.63 831.31Z" fill="#E2E2E2"/>
<path d="M389 758.16C327.22 758.16 300.12 814.61 308.25 1003.64C330.67 1013.55 364.44 1009.22 364.44 1009.22L389 758.16Z" fill="white"/>
<path d="M306.939 957.49C307.113 971.13 307.516 985.623 308.149 1000.97C323.419 1001.7 351.839 1001.85 365.259 1000.97L369.439 958.16C358.669 956.9 323.659 956.49 306.939 957.49Z" fill="#E2E2E2"/>
<path d="M370.12 831.31L369.62 1009L356.27 1009.9C353.3 860.85 370.12 831.31 370.12 831.31Z" fill="#E2E2E2"/>
<path d="M612.84 758.16C680.26 758.16 691.29 814.44 691.74 891.94V1030.16C691.74 1030.16 641.74 1035.69 635.83 1034.75L635.73 892.64" stroke="#592D3D" stroke-width="12" stroke-miterlimit="10" stroke-linecap="square"/>
<path d="M389 758.16C363.27 758.16 345.48 766.28 333.29 780.6C313.84 803.47 308.66 842.14 308.29 888.87V1012.64C320.35 1015.96 369.65 1009 369.65 1009L370.14 890.4" stroke="#592D3D" stroke-width="12" stroke-miterlimit="10" stroke-linecap="square"/>
<path d="M372.599 1011.24C370.769 1013.85 298.829 1013.16 297.929 1011.24C297.029 1009.32 295.739 973.74 297.929 970.24C299.729 967.36 370.039 967.97 372.599 970.24C375.159 972.51 374.429 1008.63 372.599 1011.24Z" fill="white" stroke="#592D3D" stroke-width="12" stroke-miterlimit="10" stroke-linecap="square"/>
<path d="M383.429 1069.39H499.999C390.809 1069.39 399.089 838.25 370.109 838.25V1056.12C370.111 1057.87 370.456 1059.6 371.127 1061.21C371.797 1062.82 372.779 1064.29 374.017 1065.52C375.254 1066.75 376.722 1067.73 378.337 1068.39C379.953 1069.06 381.683 1069.4 383.429 1069.39Z" fill="#E2E2E2"/>
<path d="M364.15 860.29C363.96 856.62 364.04 852.94 364.21 849.29C364.38 845.64 364.68 841.95 365.06 838.29C365.26 836.46 365.47 834.62 365.71 832.78C365.95 830.94 366.2 829.11 366.56 827.28C367.268 823.472 368.475 819.773 370.15 816.28C371.825 819.773 373.032 823.472 373.74 827.28C374.1 829.11 374.36 830.95 374.59 832.78C374.82 834.61 375.04 836.46 375.24 838.29C375.627 841.97 375.913 845.637 376.1 849.29C376.26 852.96 376.34 856.64 376.1 860.29H364.15Z" fill="#592D3D"/>
<path d="M635.63 869.4V877.4C635.89 911.4 635.89 946.4 635.63 980.16C635.63 983.03 635.63 985.88 635.63 988.69V1056.1C635.63 1059.62 634.232 1062.99 631.743 1065.48C629.255 1067.97 625.879 1069.37 622.36 1069.37H383.43C379.91 1069.37 376.533 1067.97 374.043 1065.48C371.553 1063 370.153 1059.62 370.15 1056.1V990.3C369.89 955.44 369.89 920.44 370.15 885V860.29" stroke="#592D3D" stroke-width="12" stroke-miterlimit="10"/>
<path d="M697.42 970.24C699.64 972.5 699.01 1008.63 697.42 1011.24C695.83 1013.85 633.42 1013.16 632.65 1011.24C631.88 1009.32 630.75 973.74 632.65 970.24C632.92 969.74 634.93 969.35 638.1 969.06" fill="white"/>
<path d="M697.42 970.24C699.64 972.5 699.01 1008.63 697.42 1011.24C695.83 1013.85 633.42 1013.16 632.65 1011.24C631.88 1009.32 630.75 973.74 632.65 970.24C632.92 969.74 634.93 969.35 638.1 969.06" stroke="#592D3D" stroke-width="12" stroke-miterlimit="10" stroke-linecap="square"/>
<path d="M678.92 968.3C679.502 967.543 680.13 966.822 680.8 966.14C681.345 965.595 681.941 965.102 682.58 964.67C683.155 964.288 683.761 963.954 684.39 963.67C685 963.38 685.61 963.13 686.22 962.88C687.449 962.383 688.716 961.989 690.01 961.7C690.669 961.554 691.337 961.451 692.01 961.39C692.37 961.39 692.74 961.39 693.18 961.39C693.43 961.39 693.64 961.39 694 961.39C694.12 961.39 694.44 961.39 694.71 961.46H695.06L695.55 961.57L695.8 961.63L696 961.69L696.57 961.9C697.317 962.226 697.996 962.691 698.57 963.27L702.77 967.56L694.12 976.04L690 971.67C690.54 972.236 691.19 972.685 691.91 972.99C692.09 973.07 692.27 973.13 692.45 973.19H692.62L692.81 973.24C692.934 973.281 693.061 973.311 693.19 973.33H693.38C693.48 973.33 693.64 973.33 693.6 973.33C693.56 973.33 693.53 973.33 693.45 973.33H692.7C692.13 973.33 691.51 973.33 690.88 973.33C689.562 973.252 688.251 973.075 686.96 972.8C686.29 972.65 685.62 972.5 684.96 972.31C684.274 972.127 683.605 971.886 682.96 971.59C682.215 971.238 681.516 970.794 680.88 970.27C680.119 969.73 679.456 969.064 678.92 968.3V968.3Z" fill="#592D3D"/>
<path d="M592.51 763.64L517.84 818.45L559.98 852.83L619.4 763.59L592.51 763.64Z" fill="#E2E2E2"/>
<path d="M629.63 869.4C629.44 865.22 629.529 861.04 629.689 856.87C629.849 852.7 630.159 848.51 630.549 844.34C630.749 842.25 630.949 840.16 631.189 838.07C631.429 835.98 631.679 833.89 632.049 831.8C632.74 827.496 633.942 823.29 635.63 819.27C637.324 823.288 638.53 827.494 639.219 831.8C639.579 833.89 639.85 835.98 640.07 838.07C640.29 840.16 640.519 842.25 640.719 844.34C641.109 848.51 641.41 852.69 641.57 856.87C641.73 861.05 641.83 865.22 641.63 869.4H629.63Z" fill="#592D3D"/>
<path d="M383.43 758.26L616.66 758.16" stroke="#592D3D" stroke-width="12" stroke-miterlimit="10"/>
<path d="M529.389 835.55L507.039 813.21L484.699 835.55L495.679 846.53L485.959 953.16L506.699 969.33L528.119 953.16L518.409 846.53L529.389 835.55Z" fill="#E2E2E2"/>
<path d="M500.04 813.21V1069.39" stroke="#592D3D" stroke-width="6" stroke-miterlimit="10" stroke-linecap="square"/>
<path d="M500.039 813.21L522.389 828.55L500.039 850.9L477.699 828.55L500.039 813.21Z" fill="#633749"/>
<path d="M419.62 758.8C419.62 758.8 462.89 798.14 494.28 813.61C479 838.82 452.15 848 452.15 848L392.72 758.77L419.62 758.8Z" fill="white" stroke="#592D3D" stroke-width="12" stroke-miterlimit="10"/>
<path d="M580.38 758.8C580.38 758.8 541 800 505.72 813.61C515.72 833.89 547.85 847.98 547.85 847.98L607.28 758.75L580.38 758.8Z" fill="white" stroke="#592D3D" stroke-width="12" stroke-miterlimit="10"/>
<path d="M566.879 947.83C566.879 938.97 555.779 930.57 538.769 925.36C542.699 908.02 540.949 894.23 533.259 889.81C531.466 888.621 529.324 888.071 527.179 888.25C519.179 888.38 509.869 893.6 499.949 902.87C489.999 893.65 478.999 888.2 472.709 888.36C469.549 888.45 468.339 888.88 466.549 889.92C458.879 894.33 457.169 908.1 461.119 925.39C444.119 930.62 433.119 939 433.119 947.83C433.119 956.66 444.219 965.09 461.229 970.3C457.299 987.64 459.049 1001.43 466.739 1005.85C468.608 1006.9 470.725 1007.43 472.869 1007.38C480.369 1007.38 490.179 1002.03 500.109 992.76C510.029 1001.98 519.849 1007.27 527.349 1007.27C529.502 1007.32 531.628 1006.79 533.509 1005.74C541.169 1001.32 542.889 987.55 538.929 970.27C555.839 965.06 566.879 956.66 566.879 947.83ZM527.159 894.34C528.236 894.309 529.303 894.553 530.259 895.05C533.969 897.18 535.579 905.28 534.329 915.69C534.029 918.25 533.539 920.95 532.939 923.69C527.238 922.309 521.452 921.307 515.619 920.69C512.147 915.899 508.359 911.346 504.279 907.06C513.159 898.87 521.489 894.35 527.159 894.34ZM475.839 961.79C477.119 963.97 478.429 966.097 479.769 968.17C475.899 967.6 472.159 966.89 468.589 966.02C469.589 962.5 470.849 958.87 472.269 955.25C473.389 957.43 474.559 959.61 475.839 961.79V961.79ZM468.509 929.64C472.079 928.8 475.839 928.06 479.739 927.49C478.409 929.59 477.069 931.74 475.819 933.95C474.569 936.16 473.389 938.31 472.269 940.49C470.836 936.938 469.581 933.317 468.509 929.64ZM475.459 947.91C477.149 944.26 479.059 940.6 481.109 937.03C483.159 933.46 485.409 929.86 487.679 926.62C491.739 926.26 495.859 926.07 499.999 926.07C504.139 926.07 508.229 926.26 512.269 926.59C514.529 929.83 516.739 933.3 518.869 936.95C520.999 940.6 522.869 944.15 524.539 947.8C522.819 951.46 520.939 955.11 518.889 958.68C516.839 962.25 514.589 965.85 512.319 969.1C508.259 969.45 504.139 969.64 499.999 969.64C495.859 969.64 491.769 969.45 487.729 969.12C485.469 965.88 483.259 962.42 481.129 958.76C478.999 955.1 477.179 951.56 475.459 947.91V947.91ZM524.159 961.71C525.409 959.53 526.579 957.32 527.699 955.14C529.133 958.695 530.388 962.319 531.459 966C527.889 966.87 524.129 967.61 520.229 968.18C521.569 966.07 522.899 963.92 524.159 961.71ZM524.159 933.87C522.909 931.69 521.569 929.56 520.229 927.49C524.109 928.057 527.836 928.773 531.409 929.64C530.409 933.16 529.149 936.79 527.729 940.41C526.579 938.23 525.409 936.05 524.129 933.87H524.159ZM507.499 920.15C505.039 920.05 502.499 919.96 499.999 919.96C497.499 919.96 494.899 920.02 492.419 920.15C494.759 917.109 497.263 914.198 499.919 911.43C502.591 914.207 505.121 917.117 507.499 920.15V920.15ZM469.569 895.15C470.533 894.636 471.618 894.39 472.709 894.44V894.44C478.349 894.44 486.709 898.94 495.609 907.15C491.551 911.422 487.789 915.966 484.349 920.75C478.508 921.354 472.714 922.357 467.009 923.75C466.379 921.03 465.919 918.38 465.589 915.85C464.309 905.43 465.889 897.33 469.569 895.18V895.15ZM462.699 964.38C459.999 963.53 457.439 962.6 455.069 961.6C445.409 957.48 439.169 952.08 439.169 947.8C439.169 943.52 445.409 938.09 455.069 934C457.409 933 459.969 932.09 462.619 931.25C464.285 936.915 466.334 942.461 468.749 947.85C466.362 953.227 464.341 958.76 462.699 964.41V964.38ZM472.819 1001.29C471.748 1001.31 470.689 1001.06 469.739 1000.56C466.029 998.43 464.419 990.33 465.669 979.92C465.969 977.35 466.459 974.66 467.059 971.92C472.759 973.306 478.545 974.308 484.379 974.92C487.849 979.716 491.637 984.273 495.719 988.56C486.829 996.8 478.489 1001.32 472.819 1001.32V1001.29ZM500.049 984.2C497.377 981.419 494.847 978.506 492.469 975.47C494.929 975.58 497.469 975.66 499.969 975.66C502.469 975.66 505.069 975.61 507.549 975.47C505.21 978.524 502.706 981.448 500.049 984.23V984.2ZM530.429 1000.45C529.465 1000.96 528.381 1001.21 527.289 1001.16C521.649 1001.16 513.289 996.66 504.389 988.45C508.448 984.178 512.21 979.634 515.649 974.85C521.491 974.246 527.284 973.243 532.989 971.85C533.603 974.466 534.077 977.113 534.409 979.78C535.689 990.23 534.109 998.32 530.429 1000.48V1000.45ZM544.909 961.6C542.559 962.6 539.999 963.5 537.349 964.35C535.681 958.682 533.633 953.133 531.219 947.74C533.592 942.376 535.597 936.857 537.219 931.22C539.919 932.07 542.479 932.99 544.879 934C554.539 938.12 560.779 943.52 560.779 947.8C560.779 952.08 554.559 957.54 544.909 961.63V961.6Z" fill="black" stroke="white" stroke-width="16"/>
<path d="M499.969 960.29C506.85 960.29 512.429 954.712 512.429 947.83C512.429 940.949 506.85 935.37 499.969 935.37C493.087 935.37 487.509 940.949 487.509 947.83C487.509 954.712 493.087 960.29 499.969 960.29Z" fill="black" stroke="white" stroke-width="24"/>
<path d="M566.879 947.83C566.879 938.97 555.779 930.57 538.769 925.36C542.699 908.02 540.949 894.23 533.259 889.81C531.466 888.621 529.324 888.071 527.179 888.25C519.179 888.38 509.869 893.6 499.949 902.87C489.999 893.65 478.999 888.2 472.709 888.36C469.549 888.45 468.339 888.88 466.549 889.92C458.879 894.33 457.169 908.1 461.119 925.39C444.119 930.62 433.119 939 433.119 947.83C433.119 956.66 444.219 965.09 461.229 970.3C457.299 987.64 459.049 1001.43 466.739 1005.85C468.608 1006.9 470.725 1007.43 472.869 1007.38C480.369 1007.38 490.179 1002.03 500.109 992.76C510.029 1001.98 519.849 1007.27 527.349 1007.27C529.502 1007.32 531.628 1006.79 533.509 1005.74C541.169 1001.32 542.889 987.55 538.929 970.27C555.839 965.06 566.879 956.66 566.879 947.83ZM527.159 894.34C528.236 894.309 529.303 894.553 530.259 895.05C533.969 897.18 535.579 905.28 534.329 915.69C534.029 918.25 533.539 920.95 532.939 923.69C527.238 922.309 521.452 921.307 515.619 920.69C512.147 915.899 508.359 911.346 504.279 907.06C513.159 898.87 521.489 894.35 527.159 894.34ZM475.839 961.79C477.119 963.97 478.429 966.097 479.769 968.17C475.899 967.6 472.159 966.89 468.589 966.02C469.589 962.5 470.849 958.87 472.269 955.25C473.389 957.43 474.559 959.61 475.839 961.79V961.79ZM468.509 929.64C472.079 928.8 475.839 928.06 479.739 927.49C478.409 929.59 477.069 931.74 475.819 933.95C474.569 936.16 473.389 938.31 472.269 940.49C470.836 936.938 469.581 933.317 468.509 929.64ZM475.459 947.91C477.149 944.26 479.059 940.6 481.109 937.03C483.159 933.46 485.409 929.86 487.679 926.62C491.739 926.26 495.859 926.07 499.999 926.07C504.139 926.07 508.229 926.26 512.269 926.59C514.529 929.83 516.739 933.3 518.869 936.95C520.999 940.6 522.869 944.15 524.539 947.8C522.819 951.46 520.939 955.11 518.889 958.68C516.839 962.25 514.589 965.85 512.319 969.1C508.259 969.45 504.139 969.64 499.999 969.64C495.859 969.64 491.769 969.45 487.729 969.12C485.469 965.88 483.259 962.42 481.129 958.76C478.999 955.1 477.179 951.56 475.459 947.91V947.91ZM524.159 961.71C525.409 959.53 526.579 957.32 527.699 955.14C529.133 958.695 530.388 962.319 531.459 966C527.889 966.87 524.129 967.61 520.229 968.18C521.569 966.07 522.899 963.92 524.159 961.71ZM524.159 933.87C522.909 931.69 521.569 929.56 520.229 927.49C524.109 928.057 527.836 928.773 531.409 929.64C530.409 933.16 529.149 936.79 527.729 940.41C526.579 938.23 525.409 936.05 524.129 933.87H524.159ZM507.499 920.15C505.039 920.05 502.499 919.96 499.999 919.96C497.499 919.96 494.899 920.02 492.419 920.15C494.759 917.109 497.263 914.198 499.919 911.43C502.591 914.207 505.121 917.117 507.499 920.15V920.15ZM469.569 895.15C470.533 894.636 471.618 894.39 472.709 894.44V894.44C478.349 894.44 486.709 898.94 495.609 907.15C491.551 911.422 487.789 915.966 484.349 920.75C478.508 921.354 472.714 922.357 467.009 923.75C466.379 921.03 465.919 918.38 465.589 915.85C464.309 905.43 465.889 897.33 469.569 895.18V895.15ZM462.699 964.38C459.999 963.53 457.439 962.6 455.069 961.6C445.409 957.48 439.169 952.08 439.169 947.8C439.169 943.52 445.409 938.09 455.069 934C457.409 933 459.969 932.09 462.619 931.25C464.285 936.915 466.334 942.461 468.749 947.85C466.362 953.227 464.341 958.76 462.699 964.41V964.38ZM472.819 1001.29C471.748 1001.31 470.689 1001.06 469.739 1000.56C466.029 998.43 464.419 990.33 465.669 979.92C465.969 977.35 466.459 974.66 467.059 971.92C472.759 973.306 478.545 974.308 484.379 974.92C487.849 979.716 491.637 984.273 495.719 988.56C486.829 996.8 478.489 1001.32 472.819 1001.32V1001.29ZM500.049 984.2C497.377 981.419 494.847 978.506 492.469 975.47C494.929 975.58 497.469 975.66 499.969 975.66C502.469 975.66 505.069 975.61 507.549 975.47C505.21 978.524 502.706 981.448 500.049 984.23V984.2ZM530.429 1000.45C529.465 1000.96 528.381 1001.21 527.289 1001.16C521.649 1001.16 513.289 996.66 504.389 988.45C508.448 984.178 512.21 979.634 515.649 974.85C521.491 974.246 527.284 973.243 532.989 971.85C533.603 974.466 534.077 977.113 534.409 979.78C535.689 990.23 534.109 998.32 530.429 1000.48V1000.45ZM544.909 961.6C542.559 962.6 539.999 963.5 537.349 964.35C535.681 958.682 533.633 953.133 531.219 947.74C533.592 942.376 535.597 936.857 537.219 931.22C539.919 932.07 542.479 932.99 544.879 934C554.539 938.12 560.779 943.52 560.779 947.8C560.779 952.08 554.559 957.54 544.909 961.63V961.6Z" fill="#61DAFB"/>
<path d="M499.969 960.29C506.85 960.29 512.429 954.712 512.429 947.83C512.429 940.949 506.85 935.37 499.969 935.37C493.087 935.37 487.509 940.949 487.509 947.83C487.509 954.712 493.087 960.29 499.969 960.29Z" fill="#61DAFB"/>
<path d="M478.96 946.16L499.7 962.33L521.12 946.16L511.12 836.38H488.96L478.96 946.16Z" fill="#633749"/>
<path d="M477.699 828.55L488.679 839.53L478.959 946.16L499.699 962.33L521.119 946.16L511.409 839.53L522.389 828.55" stroke="#592D3D" stroke-width="8" stroke-miterlimit="10"/>
<path d="M637.539 963.08C640.467 962.667 643.424 962.51 646.379 962.61C649.279 962.68 652.159 962.91 655.039 963.26C656.469 963.44 657.909 963.63 659.339 963.87C660.783 964.081 662.214 964.365 663.629 964.72C666.649 965.455 669.523 966.695 672.129 968.39C669.485 969.986 666.612 971.167 663.609 971.89C662.199 972.25 660.789 972.52 659.379 972.75C657.969 972.98 656.569 973.22 655.169 973.44C652.369 973.86 649.579 974.22 646.819 974.44C644.059 974.66 641.299 974.94 638.659 974.98L632.659 975.08L631.659 963.95L637.539 963.08Z" fill="#592D3D"/>
<path d="M490.89 836.19C490.84 836.13 490.89 836.19 490.89 836.19L490.96 836.24C491.021 836.273 491.078 836.313 491.13 836.36L491.51 836.65C491.76 836.86 492.03 837.07 492.29 837.3C492.82 837.75 493.38 838.23 493.99 838.69C494.6 839.15 495.26 839.59 495.99 840.11C496.943 840.827 497.848 841.605 498.7 842.44C497.987 843.604 496.874 844.467 495.57 844.87C494.367 845.204 493.109 845.296 491.87 845.14C490.612 845.018 489.384 844.679 488.24 844.14C487.658 843.862 487.105 843.527 486.59 843.14C486.322 842.944 486.065 842.734 485.82 842.51C485.7 842.4 485.57 842.28 485.45 842.15L485.25 841.94L485 841.65L490.89 836.19Z" fill="#592D3D"/>
<path d="M271.4 568.53C270.4 540.17 289.4 516.17 314.68 504.97C317.335 503.884 320.061 502.981 322.84 502.27C336.855 498.806 351.598 499.759 365.05 505C368.119 506.18 371.102 507.57 373.98 509.16C403.51 525.05 416.77 562.41 405.34 592.62C404.182 595.666 402.784 598.615 401.16 601.44C397.172 609.748 391.149 616.913 383.65 622.27C381.148 624.111 378.526 625.781 375.8 627.27C348.42 640.27 311.42 636.27 289.35 615.87C287.14 613.527 285.098 611.031 283.24 608.4C281.118 605.397 279.254 602.219 277.67 598.9C274.317 592.095 272.388 584.677 272 577.1C271.638 574.257 271.438 571.396 271.4 568.53V568.53Z" fill="#F3AB98"/>
<path d="M269.769 550.18C268.769 521.82 287.769 497.82 313.049 486.62C315.7 485.533 318.424 484.631 321.199 483.92C335.212 480.437 349.959 481.374 363.419 486.6C366.484 487.78 369.465 489.17 372.339 490.76C401.869 506.65 415.129 544.02 403.699 574.22C402.549 577.269 401.151 580.219 399.519 583.04C398.137 585.749 396.563 588.355 394.809 590.84C393.081 593.302 391.183 595.641 389.129 597.84C386.909 600.037 384.53 602.066 382.009 603.91C379.509 605.753 376.886 607.424 374.159 608.91C346.779 621.91 309.779 617.91 287.719 597.52C285.508 595.174 283.467 592.674 281.609 590.04C279.484 587.037 277.617 583.859 276.029 580.54C272.667 573.761 270.724 566.366 270.319 558.81C269.961 555.947 269.778 553.065 269.769 550.18V550.18Z" fill="white" stroke="#592D3D" stroke-width="12" stroke-miterlimit="10"/>
<path d="M338.51 563.03C345.27 563.03 350.75 557.55 350.75 550.79C350.75 544.03 345.27 538.55 338.51 538.55C331.75 538.55 326.27 544.03 326.27 550.79C326.27 557.55 331.75 563.03 338.51 563.03Z" fill="#592D3D"/>
<path d="M583.889 560.47C584.319 545.34 590.559 530.38 598.989 519.14C601.142 516.12 603.522 513.268 606.109 510.61C617.609 498.622 633.012 491.133 649.543 489.492C666.073 487.852 682.647 492.167 696.279 501.66C698.551 503.245 700.731 504.958 702.809 506.79C729.809 528.24 732.929 569.93 718.129 600.02C716.691 602.411 715.095 604.703 713.349 606.88C711.036 609.781 708.502 612.499 705.769 615.01C685.499 632.84 653.959 637.14 628.359 627.43C624.712 626.054 621.184 624.382 617.809 622.43C599.909 611.65 587.439 591.34 584.379 570.2C583.965 566.974 583.801 563.721 583.889 560.47V560.47Z" fill="#F3AB98"/>
<path d="M589.379 549C589.799 534.85 595.799 520.85 603.899 510.34C605.983 507.506 608.276 504.832 610.759 502.34C622.01 491.101 636.818 484.123 652.648 482.602C668.478 481.08 684.344 485.11 697.529 494C699.711 495.477 701.808 497.076 703.809 498.79C729.809 518.86 732.809 557.86 718.549 586.01C717.168 588.255 715.631 590.4 713.949 592.43C711.717 595.146 709.28 597.686 706.659 600.03C687.149 616.71 656.799 620.74 632.169 611.65C628.656 610.346 625.254 608.758 621.999 606.9C604.779 596.82 592.779 577.82 589.829 558.05C589.437 555.05 589.286 552.024 589.379 549V549Z" fill="white" stroke="#592D3D" stroke-width="12" stroke-miterlimit="10"/>
<path d="M659.21 563.03C665.97 563.03 671.45 557.55 671.45 550.79C671.45 544.03 665.97 538.55 659.21 538.55C652.45 538.55 646.97 544.03 646.97 550.79C646.97 557.55 652.45 563.03 659.21 563.03Z" fill="#592D3D"/>
<path d="M446.659 606.02H542.529" stroke="#592D3D" stroke-width="12" stroke-miterlimit="10" stroke-linecap="round"/>
<path d="M289.63 652.2C293.883 657.533 298.323 662.69 302.95 667.67C307.457 672.51 312.123 677.177 316.95 681.67C322.069 686.483 327.433 691.029 333.02 695.29C338.58 699.517 344.327 703.457 350.26 707.11C374.26 720.39 400.17 729.5 426.97 735.41C433.67 736.88 440.43 738.15 447.21 739.18C517.04 745.4 594.39 745.4 655.62 706.53C661.54 702.45 667.29 698.147 672.87 693.62C688.43 680.97 700.87 666.97 713.77 649.29C629.84 649.29 574.83 554.56 506.36 554.56C437.89 554.56 367.92 652.2 289.63 652.2Z" fill="#F3AB98"/>
<path d="M291.529 666.4C295.696 671.633 300.056 676.7 304.609 681.6C309.036 686.36 313.633 690.953 318.399 695.38C323.431 700.11 328.705 704.576 334.199 708.76C339.659 712.92 345.319 716.76 351.129 720.38C374.679 733.38 400.129 742.38 426.499 748.18C433.089 749.63 439.729 750.88 446.389 751.89C514.999 758 590.999 758 651.159 719.81C656.979 715.81 662.626 711.58 668.099 707.12C683.396 694.682 697.276 680.597 709.489 665.12C627.029 665.12 571.779 570.48 504.489 570.48C437.199 570.48 368.439 666.4 291.529 666.4Z" fill="#85C5E5" stroke="#592D3D" stroke-width="12" stroke-miterlimit="10"/>
<path d="M453.369 752.49L458.869 752.92L460.189 753.02C461.759 753.13 463.329 753.25 464.909 753.35L466.199 753.44L471.379 753.77L473.379 753.89L478.379 754.15L480.539 754.25L483.889 754.4L486.449 754.5L490.909 754.64L493.909 754.72H496.319C498.049 754.72 499.779 754.78 501.509 754.8H503.419C507.139 754.8 510.859 754.78 514.579 754.74H515.679C518.119 754.74 520.549 754.63 522.979 754.54H523.259C527.259 754.387 531.259 754.18 535.259 753.92H535.569C546.359 753.19 557.099 752 567.699 750.24C570.366 749.8 573.016 749.323 575.649 748.81C542.359 738.99 446.409 705.52 382.649 631.12C353.329 650.2 323.099 666.4 291.489 666.4L291.839 666.84L294.279 669.84L295.029 670.74C295.829 671.74 296.649 672.67 297.469 673.62L299.039 675.44L299.569 676.04C300.219 676.78 300.879 677.53 301.569 678.26C302.259 678.99 302.879 679.7 303.569 680.42C304.429 681.36 305.299 682.29 306.169 683.21L307.379 684.49C308.669 685.83 309.969 687.17 311.289 688.49L311.549 688.76C312.839 690.04 314.149 691.31 315.459 692.57L317.039 694.07C317.989 694.96 318.939 695.85 319.899 696.73L321.059 697.79C322.059 698.73 323.149 699.65 324.199 700.57C325.739 701.92 327.299 703.23 328.879 704.52L329.299 704.87C330.926 706.203 332.569 707.5 334.229 708.76C339.689 712.92 345.349 716.76 351.159 720.38C365.873 728.474 381.331 735.135 397.319 740.27C399.389 740.95 401.469 741.59 403.559 742.27C411.133 744.537 418.799 746.537 426.559 748.27C430.353 749.11 434.159 749.873 437.979 750.56C440.799 751.07 443.619 751.56 446.449 751.98L452.159 752.47L453.369 752.49Z" fill="#67B7D6"/>
<path d="M579.809 624.61C573.289 622.96 566.809 621.56 560.239 620.39C553.669 619.22 547.149 618.21 540.609 617.39C534.069 616.57 527.489 615.94 520.929 615.5C514.369 615.06 507.789 614.86 501.219 614.85H496.289L491.359 614.98C489.719 614.98 488.079 615.09 486.439 615.17C484.799 615.25 483.149 615.3 481.519 615.43C474.949 615.81 468.409 616.52 461.859 617.3C448.675 619.083 435.589 621.526 422.649 624.62C434.733 618.511 447.546 613.967 460.779 611.1C464.099 610.44 467.419 609.69 470.779 609.22C472.459 608.97 474.129 608.66 475.779 608.47L480.839 607.87C487.604 607.177 494.4 606.843 501.199 606.87C507.989 606.87 514.789 607.26 521.539 607.98C528.285 608.711 534.988 609.796 541.619 611.23C548.239 612.665 554.773 614.471 561.189 616.64C567.612 618.76 573.842 621.427 579.809 624.61V624.61Z" fill="#592D3D"/>
<path d="M364.819 686.87C375.879 690.33 387.069 693.13 398.329 695.56C401.139 696.15 403.959 696.76 406.779 697.32C409.599 697.88 412.419 698.44 415.259 698.9C420.919 699.9 426.579 700.9 432.259 701.67C443.639 703.24 455.019 704.61 466.459 705.41C477.899 706.21 489.339 706.67 500.789 706.7H509.379L517.959 706.44C520.819 706.44 523.679 706.22 526.539 706.07C529.399 705.92 532.259 705.81 535.109 705.54C546.539 704.78 557.919 703.38 569.289 701.85C592.071 698.319 614.599 693.308 636.729 686.85C615.463 696.35 593.201 703.444 570.359 708C564.629 709 558.909 710.24 553.119 711C550.229 711.4 547.349 711.88 544.449 712.19L535.749 713.13C524.119 714.13 512.449 714.84 500.749 714.74C489.049 714.64 477.399 714.13 465.749 712.98C454.099 711.83 442.579 710.16 431.149 707.84C419.723 705.598 408.418 702.775 397.279 699.38C386.164 696.021 375.314 691.84 364.819 686.87V686.87Z" fill="#592D3D"/>
<path d="M584.88 662.69C570.26 664.36 555.64 665.19 541.02 665.82C526.4 666.45 511.77 666.68 497.15 666.69C482.53 666.7 467.9 666.42 453.28 665.83C438.66 665.24 424.04 664.36 409.42 662.69C424.04 661.01 438.66 660.18 453.28 659.54C467.9 658.9 482.53 658.68 497.15 658.69C511.77 658.7 526.39 658.97 541.02 659.55C555.65 660.13 570.26 661 584.88 662.69Z" fill="#592D3D"/>
<path d="M291.529 666.4C295.696 671.633 300.056 676.7 304.609 681.6C309.036 686.36 313.633 690.953 318.399 695.38C323.431 700.11 328.705 704.576 334.199 708.76C339.659 712.92 345.319 716.76 351.129 720.38C374.679 733.38 400.129 742.38 426.499 748.18C433.089 749.63 439.729 750.88 446.389 751.89C514.999 758 590.999 758 651.159 719.81C656.979 715.81 662.626 711.58 668.099 707.12C683.396 694.682 697.276 680.597 709.489 665.12C627.029 665.12 571.779 570.48 504.489 570.48C437.199 570.48 368.439 666.4 291.529 666.4Z" stroke="#592D3D" stroke-width="12" stroke-miterlimit="10"/>
<path d="M673 659C673 659 721.64 648.39 757.3 570.46" stroke="#592D3D" stroke-width="12" stroke-miterlimit="10"/>
<path d="M330 659.06C330 659.06 276.53 645.63 243 571.45" stroke="#592D3D" stroke-width="12" stroke-miterlimit="10"/>
<path d="M558.729 399.34C545.869 423.34 498.729 436.78 494.899 430.76C490.609 424.03 532.749 375.44 508.799 324.62" fill="#F3AB98"/>
<path d="M784 342.85C778.9 337.75 752.94 344.68 726.81 342.62C701.206 307.848 667.934 279.445 629.575 259.615C591.216 239.786 548.804 229.063 505.63 228.28C503.19 207.8 504.88 190.6 503.02 188.18C500.53 184.96 487.53 200.86 484.15 219.18C472.24 204.18 452.01 196.18 451.43 200.38C451.05 203.06 458.87 214.47 466.24 230.28C354.64 243.75 263.16 322.54 231.16 427.28C217.3 439.2 204.3 447.62 204.16 452.97C203.89 462.89 243.47 462.33 260.74 460.79V460.73C321.39 458.73 439.74 446.95 497.16 387.84C491.64 406.93 481.47 421 483.43 424C486.43 428.67 521.75 418.81 533.5 400.76C581.5 420.35 672.99 443.92 752.5 384.6L752.28 384.17C766.77 372.06 790.35 349.25 784 342.85Z" fill="#85C5E5"/>
<path d="M726.85 348.62C721.45 348.86 716.19 348.73 710.85 348.48C705.51 348.23 700.26 347.81 694.98 347.22C692.34 346.93 689.7 346.62 687.07 346.22C684.44 345.82 681.8 345.5 679.18 344.99C673.841 344.03 668.618 342.508 663.6 340.45C668.845 339.107 674.199 338.23 679.6 337.83C682.23 337.61 684.86 337.46 687.49 337.35L695.37 337.01C700.62 336.79 705.86 336.67 711.09 336.56C716.32 336.45 721.57 336.44 726.71 336.56L726.85 348.62Z" fill="#592D3D"/>
<path d="M236.599 430C236.599 430 236.599 430.24 236.599 430.39L236.479 430.92L236.199 432.03C235.989 432.78 235.769 433.55 235.539 434.32C235.069 435.87 234.539 437.46 233.999 439.07C233.459 440.68 232.939 442.35 232.229 444.07C231.832 444.968 231.371 445.837 230.849 446.67C230.25 447.658 229.557 448.586 228.779 449.44C227.093 447.964 225.812 446.081 225.059 443.97C224.716 443.029 224.462 442.058 224.299 441.07C224.089 440.07 223.989 439.07 223.869 438.12C223.669 436.125 223.669 434.115 223.869 432.12C223.967 431.111 224.127 430.109 224.349 429.12C224.469 428.62 224.599 428.12 224.759 427.61C224.836 427.349 224.926 427.092 225.029 426.84C225.129 426.56 225.209 426.36 225.389 425.94L236.599 430Z" fill="#592D3D"/>
<path d="M260.74 460.82V460.76C277.74 460.2 299.37 458.86 322.88 455.92C325.51 400 344.88 334.34 388.8 257.48L382 254.23C346.13 270.896 314.165 294.917 288.179 324.734C262.193 354.552 242.766 389.499 231.16 427.31C217.3 439.23 204.3 447.65 204.16 453C203.89 462.92 243.47 462.36 260.74 460.82Z" fill="#67B7D6"/>
<path d="M784 342.85C778.9 337.75 752.94 344.68 726.81 342.62C701.206 307.848 667.934 279.445 629.575 259.615C591.216 239.786 548.804 229.063 505.63 228.28C503.19 207.8 504.88 190.6 503.02 188.18C500.53 184.96 487.53 200.86 484.15 219.18C472.24 204.18 452.01 196.18 451.43 200.38C451.05 203.06 458.87 214.47 466.24 230.28C354.64 243.75 263.16 322.54 231.16 427.28C217.3 439.2 204.3 447.62 204.16 452.97C203.89 462.89 243.47 462.33 260.74 460.79V460.73C321.39 458.73 439.74 446.95 497.16 387.84C491.64 406.93 481.47 421 483.43 424C486.43 428.67 521.75 418.81 533.5 400.76C581.5 420.35 672.99 443.92 752.5 384.6L752.28 384.17C766.77 372.06 790.35 349.25 784 342.85Z" stroke="#592D3D" stroke-width="12" stroke-miterlimit="10"/>
<path d="M505.929 244.31C491.685 245.13 477.501 246.78 463.449 249.25C459.969 249.92 456.499 250.66 453.009 251.3C449.519 251.94 446.109 252.91 442.659 253.71L432.399 256.43C428.999 257.43 425.629 258.51 422.249 259.55C408.766 263.898 395.593 269.153 382.819 275.28C369.984 281.51 357.544 288.524 345.569 296.28C356.235 286.552 368.01 278.114 380.649 271.14C393.299 264.077 406.617 258.285 420.409 253.85C423.889 252.85 427.349 251.76 430.829 250.8C434.309 249.84 437.829 248.98 441.379 248.2C444.929 247.42 448.479 246.8 452.039 246.2C455.599 245.6 459.189 245.13 462.769 244.68C477.095 242.917 491.575 242.793 505.929 244.31Z" fill="white"/>
<path d="M407.29 474.84H286.65C281.09 474.84 275.53 474.76 269.97 474.84H269.73C264.5 474.84 259.49 479.44 259.73 484.84C259.774 487.479 260.841 489.997 262.707 491.863C264.573 493.729 267.091 494.796 269.73 494.84H390.37C395.92 494.84 401.49 494.92 407.05 494.84H407.29C412.52 494.84 417.53 490.24 417.29 484.84C417.244 482.203 416.175 479.686 414.31 477.82C412.444 475.955 409.928 474.886 407.29 474.84V474.84Z" fill="#592D3D"/>
<path d="M726.319 474.84H605.679C600.119 474.84 594.559 474.76 588.999 474.84H588.759C583.529 474.84 578.519 479.44 578.759 484.84C578.803 487.479 579.871 489.997 581.737 491.863C583.603 493.729 586.121 494.796 588.759 494.84H709.399C714.959 494.84 720.519 494.92 726.079 494.84H726.319C731.549 494.84 736.559 490.24 736.319 484.84C736.273 482.203 735.205 479.686 733.339 477.82C731.474 475.955 728.957 474.886 726.319 474.84V474.84Z" fill="#592D3D"/>
</g>
</svg>
